<svg id="Знак" xmlns="http://www.w3.org/2000/svg" viewBox="0 0 500 500"><defs><style>.cls-1{fill:none;stroke:#000;stroke-miterlimit:10;stroke-width:6px;}</style></defs><title>641322Логотип міста Ковель</title><path id="Локомотив" class="cls-1" d="M197.69,307.35,216.17,285c-39.85-53.7-39-114.07,12.66-126.29l7.13-6.11a65.77,65.77,0,0,1,28.08,0l7.13,6.11c51.7,12.22,52.51,72.6,12.66,126.29l18.48,22.36"/><g id="Підкова"><g id="Права"><path d="M308.72,297.65c10.44-13.74,19.44-28.68,25.52-44.81s9.55-33.28,8.63-50.39a92.31,92.31,0,0,0-4.78-25.06,79.77,79.77,0,0,0-30.44-39.75,94.44,94.44,0,0,0-22.75-11.3l-.35-.12-.29-.24-9.45-8.06.93.44c-4.18-.76-8.5-1.22-12.81-1.57s-8.65-.56-12.94-.57v-4c4.45,0,8.86.23,13.26.58s8.8.83,13.22,1.63l.52.09.41.35,9.45,8.06-.63-.36a98.26,98.26,0,0,1,23.5,12.09,83.05,83.05,0,0,1,31.13,41.8,95.05,95.05,0,0,1,4.57,25.88c.7,17.56-3.05,35-9.47,51.18s-15.67,31.17-26.35,44.84Z"/></g><g id="Ліва"><path d="M190.38,298.35c-10.68-13.67-20-28.6-26.35-44.84s-10.16-33.62-9.47-51.18a95.05,95.05,0,0,1,4.57-25.88,83.05,83.05,0,0,1,31.13-41.8,98.26,98.26,0,0,1,23.5-12.09l-.63.36,9.45-8.06.41-.35.52-.09c4.43-.8,8.82-1.27,13.22-1.63s8.81-.57,13.26-.58v4c-4.3,0-8.63.22-12.94.57s-8.63.82-12.81,1.57l.93-.44L215.72,126l-.29.24-.35.12a94.44,94.44,0,0,0-22.75,11.3,79.77,79.77,0,0,0-30.44,39.75,92.31,92.31,0,0,0-4.78,25.06c-.92,17.11,2.51,34.33,8.63,50.39s15.08,31.07,25.52,44.81Z"/></g></g><g id="Ліва-2" data-name="Ліва"><polygon points="179.53 358.9 182.83 362.11 183.07 362.35 183.07 362.76 183.07 382.06 183.07 382.48 182.83 382.71 179.53 385.92 178.66 385.19 181.31 381.41 181.07 382.06 181.07 362.76 181.31 363.41 178.66 359.64 179.53 358.9"/></g><g id="Ліва-3" data-name="Ліва"><polygon points="189.82 385.92 186.52 382.71 186.28 382.48 186.28 382.06 186.28 362.76 186.28 362.35 186.52 362.11 189.82 358.9 190.69 359.64 188.04 363.41 188.28 362.76 188.28 382.06 188.04 381.41 190.69 385.19 189.82 385.92"/></g><g id="Ліва-4" data-name="Ліва"><path d="M187.43,370.63c1.53-.16,2.89-1.47,4.06-2.75a37.75,37.75,0,0,0,3.22-4.33c.51-.76,1-1.53,1.48-2.31a10.38,10.38,0,0,1,.88-1.27,4.6,4.6,0,0,1,1.4-1.05,4.2,4.2,0,0,1,3.46-.21,2.78,2.78,0,0,1,1.42,1.31,2.49,2.49,0,0,1,.26.9,2.29,2.29,0,0,1,0,.44,1.15,1.15,0,0,1,0,.21l0,.1v.08h0c-.25,0,.57,0-.57,0h-.58v-.05l0-.07-.05-.13a2.15,2.15,0,0,0-.11-.24,1.62,1.62,0,0,0-.27-.37,1.54,1.54,0,0,0-.7-.4,2.87,2.87,0,0,0-1.91.19,2.64,2.64,0,0,0-.81.59,9.89,9.89,0,0,0-.7,1c-.51.77-1,1.55-1.55,2.32a32.27,32.27,0,0,1-3.6,4.39,12.54,12.54,0,0,1-2.28,1.84,5.28,5.28,0,0,1-3,.92Z"/></g><g id="Ліва-5" data-name="Ліва"><path d="M187.16,369.21a19,19,0,0,1,5.25.58,12.76,12.76,0,0,1,4.84,2.38,12.18,12.18,0,0,1,3.37,4.29,14.29,14.29,0,0,1,1.38,5.32h0l-.2-.6,2.66,4.26-.91.68-3.34-3.74-.2-.22v-.38h0a12.55,12.55,0,0,0-1-4.58,10.49,10.49,0,0,0-2.75-3.83c-2.4-2.12-5.77-3-9.08-3Z"/></g></svg>