<?xml version="1.0" standalone="no"?>
<!DOCTYPE svg PUBLIC "-//W3C//DTD SVG 20010904//EN"
 "http://www.w3.org/TR/2001/REC-SVG-20010904/DTD/svg10.dtd">
<svg version="1.0" xmlns="http://www.w3.org/2000/svg"
 width="512.000000pt" height="512.000000pt" viewBox="0 0 512.000000 512.000000"
 preserveAspectRatio="xMidYMid meet">
<metadata>
Created by potrace 1.11, written by Peter Selinger 2001-2013
</metadata>
<g transform="translate(0.000000,512.000000) scale(0.100000,-0.100000)"
fill="#000000" stroke="none">
<path d="M2732 5087 c-48 -51 -66 -174 -43 -307 10 -57 56 -207 85 -272 14
-33 14 -37 0 -42 -9 -3 -19 -4 -24 -1 -22 14 -241 -36 -360 -83 -154 -60 -216
-125 -186 -195 29 -70 132 -143 263 -185 67 -22 199 -50 251 -54 43 -3 46 -10
23 -50 -54 -98 -107 -309 -110 -443 -2 -84 -5 -93 -46 -169 l-44 -81 -213 -1
c-117 -1 -244 -6 -283 -12 -38 -6 -99 -14 -135 -17 -99 -9 -151 -15 -195 -21
-114 -17 -130 -26 -159 -97 -27 -65 -55 -168 -62 -227 -3 -19 -7 -46 -10 -60
-8 -43 -5 -193 5 -247 27 -138 109 -227 231 -249 25 -4 48 -7 51 -6 19 4 115
-30 144 -52 31 -24 65 -90 80 -158 17 -81 36 -178 39 -208 13 -110 18 -148 21
-175 21 -163 22 -702 1 -766 -3 -8 -7 -39 -11 -69 -6 -62 -42 -219 -53 -236
-4 -7 -45 -26 -92 -44 -47 -18 -114 -46 -150 -62 -362 -166 -462 -194 -770
-213 -102 -7 -119 -11 -128 -35 -4 -10 -6 -69 -4 -130 l3 -112 292 6 c161 4
423 9 582 13 382 8 716 8 1120 0 182 -4 456 -10 610 -13 l280 -5 2 126 2 126
-26 10 c-14 5 -71 12 -127 14 -56 3 -117 7 -136 10 -19 3 -57 8 -85 11 -88 11
-294 83 -473 165 -37 18 -116 51 -177 76 -60 24 -113 47 -117 51 -10 10 -36
114 -53 212 -21 124 -30 270 -29 485 0 224 9 354 40 575 10 73 47 235 55 244
5 6 9 17 9 26 0 8 13 32 29 51 33 40 96 64 191 75 112 13 200 79 238 179 31
80 39 266 17 375 -3 14 -9 48 -14 76 -12 64 -48 172 -67 201 -33 52 -129 77
-362 97 -24 2 -46 7 -49 10 -3 3 7 30 23 60 26 51 29 53 48 40 44 -30 147 -7
242 54 81 52 201 173 263 264 l25 36 40 -61 c55 -81 199 -224 283 -280 129
-86 192 -85 234 1 20 40 23 62 22 152 -1 117 -21 208 -76 345 l-33 82 40 0
c69 1 198 27 306 62 143 47 250 122 250 175 0 92 -140 195 -335 246 -73 19
-112 26 -200 35 -16 2 -31 4 -32 4 -1 1 11 28 28 61 27 54 53 129 75 215 4 17
8 35 10 40 22 89 25 235 5 287 -5 15 -19 32 -30 37 -53 29 -170 -2 -261 -67
-63 -46 -167 -150 -220 -221 -25 -33 -47 -60 -50 -60 -3 0 -20 24 -38 53 -67
104 -238 265 -338 315 -74 37 -122 40 -152 8z"/>
</g>
</svg>
