<?xml version="1.0" standalone="no"?>
<!DOCTYPE svg PUBLIC "-//W3C//DTD SVG 20010904//EN"
 "http://www.w3.org/TR/2001/REC-SVG-20010904/DTD/svg10.dtd">
<svg version="1.0" xmlns="http://www.w3.org/2000/svg"
 width="512.000000pt" height="512.000000pt" viewBox="0 0 512.000000 512.000000"
 preserveAspectRatio="xMidYMid meet">
<metadata>
Created by potrace 1.14, written by Peter Selinger 2001-2017
</metadata>
<g transform="translate(0.000000,512.000000) scale(0.100000,-0.100000)"
fill="#000000" stroke="none">
<path d="M2948 5097 c-65 -56 -101 -180 -101 -352 0 -66 3 -136 6 -157 l8 -36
-58 16 c-75 20 -345 23 -418 4 -61 -16 -104 -48 -108 -82 -15 -101 134 -250
348 -349 39 -18 71 -34 73 -35 1 -2 -16 -21 -38 -44 -55 -59 -114 -148 -167
-254 -38 -77 -45 -99 -47 -155 -1 -59 1 -67 25 -85 33 -25 117 -30 189 -12 70
18 174 69 272 133 42 28 78 51 81 51 3 0 10 -21 16 -46 23 -92 130 -287 197
-359 33 -36 81 -65 108 -65 39 0 92 53 116 117 31 84 35 115 35 290 0 89 3
159 7 157 30 -19 173 -33 303 -30 236 6 305 57 244 182 -22 46 -101 128 -164
171 -59 40 -170 100 -210 113 l-35 12 39 41 c113 119 216 311 226 420 3 43 1
52 -22 73 -26 24 -34 26 -103 29 -99 3 -251 -60 -396 -167 l-52 -37 -11 43
c-35 141 -172 364 -255 416 -43 26 -75 25 -108 -3z m218 -658 c21 -24 21 -21
0 -54 -24 -36 -4 -111 30 -119 31 -8 97 48 89 75 -7 20 26 59 50 59 18 0 55
-35 55 -53 0 -26 -28 -50 -59 -52 -40 -2 -91 -49 -89 -82 2 -19 12 -26 52 -38
33 -10 53 -12 60 -5 17 17 54 11 70 -12 20 -28 20 -43 0 -62 -23 -24 -60 -19
-82 9 -26 33 -97 59 -121 44 -15 -10 -16 -18 -7 -65 5 -30 15 -54 21 -54 16 0
35 -23 40 -49 5 -27 -37 -61 -66 -54 -30 8 -45 47 -30 77 21 38 2 121 -29 129
-23 6 -90 -60 -90 -90 0 -27 -25 -53 -50 -53 -41 0 -67 63 -36 89 7 6 28 13
45 15 46 5 94 56 83 87 -10 26 -90 55 -106 39 -14 -14 -60 -12 -74 2 -7 7 -12
24 -12 40 0 49 75 66 95 21 6 -14 27 -29 53 -38 40 -13 45 -13 63 4 20 18 20
29 3 93 -3 9 -14 20 -24 23 -47 15 -30 95 20 95 15 0 35 -9 46 -21z"/>
<path d="M2177 3314 c-1 -2 -27 -5 -57 -9 -30 -3 -71 -7 -90 -10 -19 -2 -64
-7 -100 -11 -36 -3 -74 -8 -85 -10 -121 -23 -137 -35 -168 -137 -14 -45 -28
-95 -31 -112 -15 -83 -18 -106 -21 -184 -7 -217 67 -341 217 -365 136 -21 188
-47 211 -104 18 -45 39 -146 53 -252 3 -25 7 -55 9 -67 2 -12 6 -57 10 -100 4
-43 8 -94 11 -113 24 -199 23 -977 -1 -1053 -2 -7 -6 -36 -10 -66 -3 -30 -13
-86 -21 -124 -15 -63 -19 -71 -47 -81 -17 -6 -97 -40 -177 -75 -365 -160 -419
-174 -716 -196 -83 -5 -102 -11 -106 -32 -2 -8 -2 -60 0 -114 l3 -100 297 5
c163 3 423 9 577 12 345 8 460 8 840 0 165 -3 429 -9 588 -12 l287 -5 0 115
c0 132 5 125 -105 132 -258 16 -364 41 -579 136 -50 22 -147 64 -216 93 l-125
52 -17 69 c-10 38 -20 96 -24 129 -3 33 -8 62 -9 65 -24 42 -24 843 0 1053 2
18 6 64 10 102 8 90 15 154 20 185 3 14 7 41 10 60 33 216 62 253 210 275 144
22 206 71 242 194 51 174 -17 558 -105 593 -52 20 -127 38 -192 44 -124 12
-109 21 -158 -91 -189 -429 -317 -861 -357 -1210 -3 -27 -8 -66 -11 -85 -9
-62 -12 -403 -4 -465 5 -33 11 -87 15 -120 3 -33 8 -67 10 -75 2 -8 7 -31 10
-50 12 -72 48 -198 82 -290 31 -84 108 -246 123 -260 3 -3 20 -27 38 -54 30
-43 32 -50 19 -64 -13 -13 -19 -9 -51 34 -95 129 -213 415 -242 584 -3 14 -7
31 -9 38 -3 8 -8 37 -11 65 -4 29 -8 54 -10 58 -10 17 -19 178 -19 334 0 225
10 333 46 527 11 59 22 120 25 135 3 14 7 30 9 33 2 4 7 22 10 41 3 19 13 59
21 89 9 30 17 62 19 71 20 104 166 497 265 713 12 26 19 50 16 53 -5 5 -424
12 -429 7z"/>
</g>
</svg>
