<?xml version="1.0" standalone="no"?>
<!DOCTYPE svg PUBLIC "-//W3C//DTD SVG 20010904//EN"
 "http://www.w3.org/TR/2001/REC-SVG-20010904/DTD/svg10.dtd">
<svg version="1.0" xmlns="http://www.w3.org/2000/svg"
 width="512.000000pt" height="512.000000pt" viewBox="0 0 512.000000 512.000000"
 preserveAspectRatio="xMidYMid meet">
<metadata>
Created by potrace 1.11, written by Peter Selinger 2001-2013
</metadata>
<g transform="translate(0.000000,512.000000) scale(0.100000,-0.100000)"
fill="#000000" stroke="none">
<path d="M2753 4922 c-26 -4 -55 -42 -72 -94 -28 -85 1 -277 62 -427 15 -36
27 -67 27 -71 0 -3 -17 -6 -37 -7 -210 -4 -513 -131 -513 -215 0 -78 110 -168
261 -215 30 -9 60 -18 68 -19 7 -1 34 -8 60 -14 25 -6 67 -12 93 -13 27 -1 48
-2 48 -3 0 0 -13 -27 -29 -60 -56 -115 -91 -261 -96 -390 -2 -85 -5 -97 -42
-165 l-40 -74 -209 -1 c-115 -1 -243 -6 -284 -12 -41 -6 -106 -14 -145 -17
-38 -3 -81 -7 -95 -10 -14 -2 -43 -6 -64 -10 -89 -13 -117 -50 -155 -205 -31
-130 -43 -288 -26 -360 3 -14 8 -36 11 -49 7 -34 38 -92 66 -122 38 -42 75
-59 156 -75 109 -20 143 -33 175 -62 35 -33 70 -141 92 -287 9 -60 18 -120 20
-133 26 -164 26 -706 0 -843 -3 -13 -7 -40 -10 -61 -10 -64 -35 -153 -48 -164
-7 -6 -52 -27 -102 -47 -49 -19 -126 -52 -169 -72 -171 -79 -343 -139 -435
-151 -25 -3 -54 -8 -64 -10 -10 -2 -66 -6 -125 -9 -59 -3 -119 -10 -133 -16
-27 -10 -27 -20 -20 -219 1 -24 4 -25 53 -23 29 1 213 4 408 8 195 4 416 8
490 10 193 5 545 5 760 0 522 -11 918 -18 948 -16 9 1 12 32 12 120 l0 119
-37 6 c-21 3 -80 8 -131 11 -51 3 -110 8 -130 11 -20 3 -46 7 -57 9 -87 12
-247 68 -420 147 -66 30 -155 68 -199 84 -89 33 -87 31 -116 164 -29 135 -42
278 -42 475 -1 131 8 338 17 395 2 14 6 56 10 95 4 38 8 72 10 75 2 4 6 28 10
54 8 69 35 175 57 222 25 54 75 81 183 99 146 23 212 81 246 214 17 66 19 235
4 321 -12 66 -45 177 -66 219 -31 66 -89 85 -326 107 -40 4 -73 8 -73 9 0 3
52 98 56 104 2 2 11 -2 19 -9 22 -18 99 -13 151 9 94 42 235 165 305 267 16
24 32 44 34 44 2 0 19 -21 36 -47 99 -143 288 -301 383 -319 135 -25 164 225
57 498 l-38 96 31 0 c121 0 346 66 449 132 31 19 53 43 63 65 13 32 13 38 -6
75 -41 81 -176 152 -357 189 -56 12 -113 21 -127 21 -26 0 -35 13 -17 24 8 6
66 156 78 201 5 21 19 83 28 125 11 52 7 178 -6 206 -59 123 -286 15 -476
-228 l-46 -58 -28 44 c-15 25 -61 79 -101 122 -134 141 -254 218 -325 206z"/>
</g>
</svg>
