<?xml version="1.0" standalone="no"?>
<!DOCTYPE svg PUBLIC "-//W3C//DTD SVG 20010904//EN"
 "http://www.w3.org/TR/2001/REC-SVG-20010904/DTD/svg10.dtd">
<svg version="1.0" xmlns="http://www.w3.org/2000/svg"
 width="512.000000pt" height="512.000000pt" viewBox="0 0 512.000000 512.000000"
 preserveAspectRatio="xMidYMid meet">
<metadata>
Created by potrace 1.14, written by Peter Selinger 2001-2017
</metadata>
<g transform="translate(0.000000,512.000000) scale(0.100000,-0.100000)"
fill="#000000" stroke="none">
<path d="M2928 5093 c-33 -35 -64 -90 -72 -129 -3 -16 -9 -40 -12 -54 -10 -45
-12 -224 -3 -289 5 -35 8 -65 7 -67 -2 -1 -32 4 -68 12 -64 14 -281 20 -330 9
-14 -2 -41 -8 -60 -11 -77 -14 -120 -50 -120 -100 0 -102 125 -221 336 -321
l94 -45 -45 -50 c-101 -113 -205 -321 -207 -416 0 -38 4 -50 26 -69 28 -24 42
-27 111 -25 93 2 241 66 361 156 l72 54 12 -42 c46 -157 190 -375 279 -420 27
-15 35 -15 65 -2 51 21 97 101 114 201 9 50 8 289 -1 333 -4 22 -3 31 4 27 25
-16 183 -33 284 -30 209 6 301 47 288 128 -10 66 -59 130 -154 203 -55 42
-205 123 -257 139 -23 7 -22 7 13 47 84 93 183 268 209 371 28 109 -1 151
-107 154 -33 1 -82 -6 -111 -14 -70 -21 -208 -93 -281 -148 l-59 -45 -27 73
c-29 82 -74 166 -130 247 -53 75 -70 95 -114 124 -49 34 -84 33 -117 -1z m398
-781 c68 -36 94 -123 55 -185 -70 -114 -241 -65 -241 68 0 92 107 160 186 117z"/>
<path d="M2130 3308 c-30 -3 -86 -9 -125 -13 -162 -14 -265 -37 -290 -65 -14
-16 -51 -107 -62 -155 -36 -156 -39 -340 -8 -433 33 -96 106 -152 220 -169 62
-9 131 -33 153 -54 47 -43 73 -161 107 -484 26 -246 36 -704 22 -966 -8 -146
-32 -329 -52 -395 l-15 -51 -77 -28 c-43 -16 -124 -50 -180 -76 -218 -102
-389 -154 -538 -164 -158 -10 -209 -16 -220 -25 -8 -6 -12 -160 -6 -223 1 -7
304 -4 876 9 338 8 453 8 835 0 162 -3 426 -9 586 -11 l291 -6 2 114 1 115
-42 10 c-24 5 -72 10 -108 11 -195 5 -336 43 -630 174 -80 35 -168 72 -196 82
-48 17 -52 21 -63 64 -13 53 -19 82 -27 131 -3 19 -7 46 -9 60 -27 169 -27
894 0 1118 2 15 6 59 10 97 16 178 50 355 78 414 14 30 84 67 142 76 119 17
149 30 199 81 89 92 106 324 39 554 -36 125 -47 140 -123 166 -64 21 -104 28
-230 39 l-65 6 -32 -68 c-96 -206 -187 -435 -237 -596 -55 -177 -118 -440
-131 -548 -3 -24 -8 -53 -10 -64 -11 -54 -20 -217 -19 -375 0 -205 8 -283 45
-455 20 -93 58 -220 87 -290 39 -94 125 -254 167 -310 25 -33 45 -63 45 -67 0
-37 -82 64 -147 179 -82 147 -142 317 -189 533 -39 178 -50 590 -19 748 1 10
6 45 10 77 4 33 16 103 27 155 11 52 22 106 24 119 31 157 153 521 239 717 8
19 22 51 31 72 10 20 31 67 49 105 31 65 31 67 11 68 -86 5 -402 3 -446 -3z"/>
</g>
</svg>
