<svg id="Знак" xmlns="http://www.w3.org/2000/svg" viewBox="0 0 191.04 197.05"><title>logo</title><path id="Підкова" d="M145.52,197l-20-24.17,1.4-1.89c23.92-32.24,33.2-67.55,24.22-92.16C145.64,63.71,133.48,53.53,116,49.4l-.71-.17-7.07-6.06a61.85,61.85,0,0,0-25.4,0l-7.07,6.06L75,49.4C57.56,53.53,45.4,63.71,39.88,78.83c-9,24.61.29,59.92,24.22,92.16l1.4,1.89L45.52,197l-4.62-3.82,17-20.56c-24.07-33.33-33.14-69.91-23.65-95.89,6.17-16.9,19.54-28.31,38.7-33l7.2-6.16.79-.15a68.73,68.73,0,0,1,29.18,0l.79.15,7.2,6.16c19.16,4.73,32.53,16.14,38.7,33,9.49,26,.43,62.56-23.65,95.89l17,20.56Zm9.62-10.91c10.68-13.67,20-28.6,26.35-44.84s10.16-33.62,9.47-51.18a95.05,95.05,0,0,0-4.57-25.88,83.05,83.05,0,0,0-31.13-41.8,98.26,98.26,0,0,0-23.5-12.09l.63.36-9.45-8.06-.41-.35L122,2.21c-4.43-.8-8.82-1.27-13.22-1.63S100,0,95.52,0V4c4.3,0,8.63.22,12.94.57s8.63.82,12.81,1.57l-.93-.44,9.45,8.06.29.24.35.12a94.44,94.44,0,0,1,22.75,11.3,79.77,79.77,0,0,1,30.44,39.75,92.31,92.31,0,0,1,4.78,25.06c.92,17.11-2.51,34.33-8.63,50.39s-15.08,31.07-25.52,44.81Zm-118.34-.7c-10.44-13.74-19.44-28.68-25.52-44.81S1.73,107.34,2.65,90.23A92.31,92.31,0,0,1,7.42,65.17,79.77,79.77,0,0,1,37.86,25.42a94.44,94.44,0,0,1,22.75-11.3L61,14l.29-.24L70.7,5.7l-.93.44c4.18-.76,8.5-1.22,12.81-1.57S91.22,4,95.52,4V0c-4.45,0-8.86.23-13.26.58S73.46,1.41,69,2.21l-.52.09-.41.35-9.45,8.06.63-.36a98.26,98.26,0,0,0-23.5,12.09A83.05,83.05,0,0,0,4.65,64.23,95.05,95.05,0,0,0,.08,90.11c-.7,17.56,3.05,35,9.47,51.18s15.67,31.17,26.35,44.84Z"/></svg>