<svg id="Знак" xmlns="http://www.w3.org/2000/svg" viewBox="0 0 191.04 197.05"><defs><style>.cls-1{fill:none;stroke:#000;stroke-miterlimit:10;stroke-width:6px;}</style></defs><title>Логотип міста Ковель</title><path id="Локомотив" class="cls-1" d="M43.21,195.14l18.48-22.36c-39.85-53.7-39-114.07,12.66-126.29l7.13-6.11a65.77,65.77,0,0,1,28.08,0l7.13,6.11c51.7,12.22,52.51,72.6,12.66,126.29l18.48,22.36"/><g id="Підкова"><g id="Права"><path d="M154.24,185.44c10.44-13.74,19.44-28.68,25.52-44.81s9.55-33.28,8.63-50.39a92.31,92.31,0,0,0-4.78-25.06,79.77,79.77,0,0,0-30.44-39.75,94.44,94.44,0,0,0-22.75-11.3l-.35-.12-.29-.24L120.34,5.7l.93.44c-4.18-.76-8.5-1.22-12.81-1.57S99.82,4,95.52,4V0c4.45,0,8.86.23,13.26.58s8.8.83,13.22,1.63l.52.09.41.35,9.45,8.06-.63-.36a98.26,98.26,0,0,1,23.5,12.09,83.05,83.05,0,0,1,31.13,41.8A95.05,95.05,0,0,1,191,90.11c.7,17.56-3.05,35-9.47,51.18s-15.67,31.17-26.35,44.84Z"/></g><g id="Ліва"><path d="M35.9,186.14c-10.68-13.67-20-28.6-26.35-44.84S-.61,107.67.08,90.11A95.05,95.05,0,0,1,4.65,64.23a83.05,83.05,0,0,1,31.13-41.8,98.26,98.26,0,0,1,23.5-12.09l-.63.36L68.1,2.65l.41-.35L69,2.21C73.46,1.41,77.85.94,82.26.58S91.07,0,95.52,0V4c-4.3,0-8.63.22-12.94.57s-8.63.82-12.81,1.57l.93-.44-9.45,8.06L61,14l-.35.12a94.44,94.44,0,0,0-22.75,11.3A79.77,79.77,0,0,0,7.42,65.17,92.31,92.31,0,0,0,2.65,90.23c-.92,17.11,2.51,34.33,8.63,50.39s15.08,31.07,25.52,44.81Z"/></g></g></svg>