<?xml version="1.0" encoding="utf-8"?>
<!-- Generator: Adobe Illustrator 27.2.0, SVG Export Plug-In . SVG Version: 6.00 Build 0)  -->
<svg version="1.1" id="Данилюк" xmlns="http://www.w3.org/2000/svg" xmlns:xlink="http://www.w3.org/1999/xlink" x="0px"
	 y="0px" viewBox="0 0 341.1 512" style="enable-background:new 0 0 341.1 512;" xml:space="preserve">
<path id="Рейка" d="M300.1,489.8l-0.4,22.2l-129.2-2.5L41.3,512l-0.4-22.2c5.9-4.4,24.1,0,47.8-7.8
	c26.1-8.7,25.2-11.5,54.8-22.2c14.4-42.2,5.2-178.1-4.8-188.5s-25.5-1.3-35.9-17.6s-3.3-49.6,2.6-62.2c1.7-8.4,32.7-7.8,48.5-10.8
	h24.3c0,0,8-0.1,18.1,0.5c-39.3,84.1-45.1,147.1-41.3,188.6c5.5,60.6,31.4,89.6,32.5,90.8l3.3-3c-0.3-0.3-26.1-29.3-31.4-88.5
	c-3.7-41.2,2.2-103.8,41.6-187.5c15.5,1.1,33.4,3.7,34.7,10c5.9,12.6,12.9,46.2,2.6,62.5s-25.9,7-35.9,17.4s-19.2,146.2-4.8,188.4
	c29.6,10.7,28.6,13.5,54.8,22.2C276,489.9,294.2,485.4,300.1,489.8z"/>
<path id="Анемон" d="M301.6,85.2c-1.3-0.6-2.7-1.1-4-1.6c1.5-1.2,3-2.6,4.4-4c12.2-13.2,29.7-44.1,19.3-50s-30.4,0.6-51,16.1
	c-1.1,0.9-2.3,1.8-3.4,2.7c-0.4-1.9-0.8-3.9-1.3-5.9c-5.3-17.2-23.3-47.8-33.6-41.8S217.5,27.5,220.6,53c0.2,1.5,0.4,2.9,0.6,4.3
	c-1.8-0.7-3.8-1.3-5.7-1.8c-17.5-3.9-53.1-3.7-53,8.3s15.8,26,39.4,36.1c1.4,0.6,2.7,1.1,4,1.6c-1.5,1.2-3,2.6-4.4,4.1
	c-12.2,13.2-29.7,44.1-19.3,50s30.4-0.6,51-16.1c1.1-0.9,2.3-1.8,3.4-2.7c0.4,2,0.8,3.9,1.3,5.9c5.4,17.1,23.3,47.8,33.7,41.7
	s14.7-26.7,11.5-52.2c-0.2-1.4-0.4-2.9-0.6-4.3c1.8,0.7,3.8,1.3,5.7,1.8c17.5,3.9,53.1,3.7,53-8.3S325.3,95.3,301.6,85.2z
	 M278.7,100.6c-0.9,2.9-3.9,4.5-6.8,3.6c-2.3-0.7-3.8-2.7-3.9-5.1l-9.8-3c-0.7,1-1.7,1.9-2.8,2.4l2.3,10.2c3,0.3,5.2,2.9,4.9,5.9
	c-0.3,3-2.9,5.2-5.9,4.9c-3-0.3-5.2-2.9-4.9-5.9c0.2-1.7,1.1-3.2,2.6-4.1l-2.3-10.1c-1.3,0-2.5-0.4-3.6-1l-7.5,7
	c1.3,2.7,0.1,5.9-2.6,7.2c-2.1,1-4.7,0.5-6.3-1.2c-2-2.2-1.9-5.6,0.3-7.7c1.7-1.6,4.2-1.9,6.3-0.8l7.3-6.8c-0.5-0.7-0.8-1.6-1-2.4
	c-0.1-0.5-0.2-1.1-0.2-1.6l-9.3-2.8c-1.7,2.4-5.1,3-7.5,1.3c-2.4-1.7-3-5.1-1.3-7.5c1.7-2.4,5.1-3,7.5-1.3c1.4,1,2.2,2.6,2.3,4.3
	l9.1,2.8c0.7-1.5,1.9-2.6,3.3-3.3l-2.1-9c-3-0.3-5.2-2.9-4.9-5.9c0.3-3,2.9-5.2,5.9-4.9s5.2,2.9,4.9,5.9c-0.2,1.7-1.1,3.2-2.6,4.1
	l2.1,9c1.6,0,3.2,0.5,4.5,1.5l6.9-6.5c-1.3-2.7-0.1-5.9,2.6-7.2c2.1-1,4.7-0.5,6.3,1.2c2,2.2,1.9,5.6-0.3,7.7
	c-1.7,1.6-4.2,1.9-6.3,0.8l-7.1,6.6c0.3,0.5,0.4,1,0.6,1.5c0.2,0.9,0.2,1.7,0.1,2.6l9.6,3c1.7-2.5,5.1-3.1,7.5-1.3
	C278.6,95.9,279.4,98.4,278.7,100.6L278.7,100.6z"/>
</svg>
