<svg id="Данилюк" xmlns="http://www.w3.org/2000/svg" viewBox="0 0 300.15 512"><title>danyliuk</title><path id="Рейка" d="M385.09,489.79,384.71,512l-129.2-2.55L126.31,512l-.38-22.24c5.92-4.44,24.13,0,47.76-7.82,26.15-8.68,25.17-11.49,54.78-22.24,14.42-42.2,5.18-178.15-4.83-188.51s-25.53-1.27-35.89-17.56-3.32-49.6,2.61-62.16c1.72-8.35,32.72-7.82,48.48-10.78h24.34s8-.06,18.06.47c-39.3,84.1-45.1,147.05-41.28,188.63,5.54,60.62,31.42,89.55,32.51,90.76l3.29-3c-.27-.27-26.09-29.26-31.42-88.54-3.7-41.22,2.19-103.76,41.63-187.53,15.49,1.1,33.4,3.7,34.71,10,5.92,12.59,12.94,46.22,2.58,62.51s-25.91,7-35.89,17.38-19.25,146.22-4.83,188.42c29.61,10.72,28.63,13.53,54.78,22.21C361,489.85,379.17,485.35,385.09,489.79Z" transform="translate(-125.93)"/><path id="Анемона" d="M386.66,85.23c-1.33-.56-2.66-1.1-4-1.57,1.48-1.24,3-2.61,4.41-4,12.17-13.21,29.73-44.09,19.34-50s-30.44.65-51,16.08c-1.15.89-2.28,1.78-3.38,2.69-.36-1.92-.8-3.88-1.3-5.86C345.44,25.41,327.47-5.26,317.13.78S302.47,27.46,305.58,53c.18,1.45.38,2.87.65,4.26-1.84-.68-3.76-1.27-5.72-1.81-17.5-3.94-53.07-3.7-53,8.29s15.78,26,39.41,36.07c1.36.56,2.69,1.1,4,1.57-1.51,1.24-3,2.61-4.44,4.06-12.17,13.21-29.73,44.09-19.34,50s30.44-.65,51-16.08c1.15-.86,2.28-1.75,3.35-2.69.36,2,.8,3.91,1.3,5.86,5.36,17.12,23.33,47.79,33.67,41.72S371.14,157.54,368,132c-.18-1.45-.38-2.87-.65-4.26,1.84.68,3.76,1.27,5.72,1.81,17.5,3.94,53.06,3.73,53-8.26S410.29,95.3,386.66,85.23Zm-22.95,15.4a5.43,5.43,0,0,1-10.63-1.45l-9.83-3a7,7,0,0,1-2.81,2.43l2.34,10.16a5.42,5.42,0,1,1-3.32.77l-2.34-10.13a7.17,7.17,0,0,1-3.61-1l-7.52,7a5.42,5.42,0,0,1-8.88,6,5.43,5.43,0,0,1,6.57-8.47L331,96.1a7.44,7.44,0,0,1-1-2.43,7.82,7.82,0,0,1-.18-1.63l-9.27-2.84a5.41,5.41,0,1,1,1-3.26l9.06,2.78a7.13,7.13,0,0,1,3.32-3.35l-2.07-9a5.42,5.42,0,1,1,3.32-.77l2.07,9a7.24,7.24,0,0,1,4.47,1.54l6.93-6.46a5.42,5.42,0,0,1,8.88-6,5.43,5.43,0,0,1-6.57,8.47l-7.11,6.63a5.66,5.66,0,0,1,.56,1.54,6.48,6.48,0,0,1,.09,2.61l9.62,3a5.42,5.42,0,0,1,9.62,4.71Z" transform="translate(-125.93)"/></svg>