<?xml version="1.0" encoding="UTF-8"?>
<svg id="_Данилюк" data-name="Данилюк" xmlns="http://www.w3.org/2000/svg" viewBox="0 0 341.06 512">
  <path id="_Рейка" data-name="Рейка" d="m300.08,489.79l-.38,22.21-129.2-2.55-129.2,2.55-.38-22.24c5.92-4.44,24.13,0,47.76-7.82,26.15-8.68,25.17-11.49,54.78-22.24,14.42-42.2,5.18-178.15-4.83-188.51s-25.53-1.27-35.89-17.56-3.32-49.6,2.61-62.16c1.72-8.35,32.72-7.82,48.48-10.78h24.34s8-.06,18.06.47c-39.3,84.1-45.1,147.05-41.28,188.63,5.54,60.62,31.42,89.55,32.51,90.76l3.29-3c-.27-.27-26.09-29.26-31.42-88.54-3.7-41.22,2.19-103.76,41.63-187.53,15.49,1.1,33.4,3.7,34.71,10,5.92,12.59,12.94,46.22,2.58,62.51s-25.91,7-35.89,17.38-19.25,146.22-4.83,188.42c29.61,10.72,28.63,13.53,54.78,22.21,23.68,7.85,41.85,3.35,47.77,7.79Z"/>
  <path id="_Анемон" data-name="Анемон" d="m301.65,85.23c-1.33-.56-2.66-1.1-4-1.57,1.48-1.24,3-2.61,4.41-4,12.17-13.21,29.73-44.09,19.34-50s-30.44.65-51,16.08c-1.15.89-2.28,1.78-3.38,2.69-.36-1.92-.8-3.88-1.3-5.86-5.29-17.16-23.26-47.83-33.6-41.79s-14.66,26.68-11.55,52.22c.18,1.45.38,2.87.65,4.26-1.84-.68-3.76-1.27-5.72-1.81-17.5-3.94-53.07-3.7-53,8.29s15.78,26,39.41,36.07c1.36.56,2.69,1.1,4,1.57-1.51,1.24-3,2.61-4.44,4.06-12.17,13.21-29.73,44.09-19.34,50s30.44-.65,51-16.08c1.15-.86,2.28-1.75,3.35-2.69.36,2,.8,3.91,1.3,5.86,5.36,17.12,23.33,47.79,33.67,41.72s14.68-26.71,11.54-52.25c-.18-1.45-.38-2.87-.65-4.26,1.84.68,3.76,1.27,5.72,1.81,17.5,3.94,53.06,3.73,53-8.26s-15.78-25.99-39.41-36.06Zm-22.95,15.4c-.86,2.87-3.89,4.5-6.76,3.64-2.26-.68-3.82-2.73-3.87-5.09l-9.83-3c-.7,1.05-1.67,1.89-2.81,2.43l2.34,10.16c2.98.27,5.17,2.91,4.9,5.89-.27,2.98-2.91,5.17-5.89,4.9s-5.17-2.91-4.9-5.89c.16-1.71,1.11-3.24,2.57-4.13l-2.34-10.13c-1.27,0-2.52-.35-3.61-1l-7.52,7c1.28,2.7.13,5.94-2.57,7.22-2.14,1.02-4.7.52-6.31-1.22-2.04-2.19-1.92-5.63.27-7.67,1.71-1.59,4.25-1.91,6.3-.8l7.32-6.84c-.47-.74-.81-1.57-1-2.43-.12-.54-.18-1.08-.18-1.63l-9.27-2.84c-1.73,2.43-5.11,3-7.54,1.27-2.43-1.73-3-5.11-1.27-7.54,1.73-2.43,5.11-3,7.54-1.27,1.39.99,2.23,2.58,2.27,4.28l9.06,2.78c.69-1.46,1.87-2.64,3.32-3.35l-2.07-9c-2.98-.27-5.17-2.91-4.9-5.89.27-2.98,2.91-5.17,5.89-4.9s5.17,2.91,4.9,5.89c-.16,1.71-1.11,3.24-2.57,4.13l2.07,9c1.62,0,3.19.54,4.47,1.54l6.93-6.46c-1.28-2.7-.13-5.94,2.57-7.22,2.14-1.02,4.7-.52,6.31,1.22,2.04,2.19,1.92,5.63-.27,7.67-1.71,1.59-4.25,1.91-6.3.8l-7.11,6.63c.26.48.45,1,.56,1.54.21.85.24,1.74.09,2.61l9.62,3c1.71-2.45,5.09-3.05,7.55-1.34,1.93,1.35,2.77,3.8,2.07,6.05h-.03Z"/>
</svg>